<?xml version="1.0" encoding="UTF-8"?>
<svg id="_레이어_1" data-name="레이어 1" xmlns="http://www.w3.org/2000/svg" viewBox="0 0 478.96 365.91">
  <defs>
    <style>
      .cls-1 {
        stroke-width: 0px;
      }
    </style>
  </defs>
  <path class="cls-1" d="M442.76,149.52s-.03-.02-.04-.03c1.5-6.18,2.54-12.53,3.07-19.07.04-.53.14-1.05.25-1.56v-.02c.23-3.02.34-6.07.34-9.15,0-4.9-.29-9.88-.88-14.93-.6-4-1.16-8.02-1.91-11.98-.11-.5-.21-1-.31-1.49-.09-.45-.18-.89-.29-1.34-.02-.11-.05-.22-.07-.33-.1-.45-.21-.89-.31-1.34-.11-.44-.23-.87-.34-1.31-4.05-15.24-9.94-28.97-17.95-40.8-.06-.09-.11-.17-.17-.25-8.05-11.38-18.43-21.26-31.44-29.39-3.8-2.37-7.63-4.49-11.5-6.35-3.53-1.57-7.21-2.99-11.06-4.24-11.58-3.77-22.78-5.75-33.59-5.94-12.29.16-24.79,2.69-37.42,7.62-4.86,1.9-9.44,4.14-13.75,6.68-18.11,10.63-31.66,26.53-42.68,44.99-1,1.66-1.95,3.35-2.54,4.37-7.65-10.04-14.35-20.58-22.75-29.53-7.53-8.03-15.49-14.65-23.84-19.84C168.54-1.33,139.98-4.2,108.81,5.96c-17.14,5.59-31.1,14.31-42.25,25.63-5.58,5.66-10.46,11.97-14.67,18.86-.6.98-1.18,1.98-1.76,2.98-.87,1.51-1.71,3.05-2.5,4.62-.81,1.57-1.58,3.15-2.33,4.76h0c-.99,2.16-1.94,4.36-2.83,6.59h0c-.67,1.69-1.31,3.39-1.93,5.11h0c-.4,1.17-.8,2.33-1.19,3.5-.96,2.92-1.84,5.91-2.65,8.96-2.02,7.62-2.78,15.57-4.12,23.36v16.98c.2,1.03.51,2.06.59,3.11.53,6.53,1.57,12.88,3.07,19.06-20.61,16.13-51.54,58.01-27.48,107.13,12.1,24.7,32.89,41.23,60.14,47.81,6.13,1.48,12.59,2.45,19.36,2.9,20.13,1.35,43.01-1.83,68.47-9.52,24.76,21.63,49.63,43.14,74.44,64.73,5.37,4.68,11.58,4.46,17.18-.41,24.68-21.44,49.44-42.78,74.08-64.26,25.37,7.65,48.2,10.81,68.27,9.46,6.77-.45,13.23-1.42,19.37-2.9,27.24-6.58,48.03-23.11,60.13-47.81,24.04-49.09-6.83-90.95-27.44-107.09ZM62.49,84.98c2.41-7.06,5.57-13.84,9.48-20.18.37-.59.74-1.18,1.12-1.77.57-.88,1.15-1.74,1.75-2.6.6-.86,1.21-1.71,1.84-2.55t0-.01c.35-.47.7-.93,1.06-1.39.54-.71,1.1-1.4,1.67-2.09.85-1.04,1.73-2.05,2.63-3.05.9-1,1.82-1.99,2.77-2.95.35-.38.72-.74,1.09-1.11v.02c24.6-24.2,64.53-30.85,96.03-11.55,4.37,2.67,8.56,5.84,12.54,9.53,14.86,13.79,24.56,30.8,31.94,49.36.4,1,.68,2.04,1.06,3.05,2.49,6.57,6.27,9.61,11.98,9.63,5.71.03,9.42-3.08,12.1-9.51,3.15-7.55,6.16-15.22,10.02-22.42,8.64-16.07,19.76-30.02,35.53-39.52.89-.54,1.79-1.06,2.71-1.57,24.01-13.25,48.61-13.03,72.79-1.29,25.05,12.17,39.36,33.02,46.04,59.12.14.58.29,1.15.43,1.73.02.06.03.12.04.19.18.7.34,1.4.49,2.1.08.32.15.65.21.98.16.75.31,1.5.46,2.25.15.82.29,1.64.43,2.46,2.04,12.07,1.94,23.77-.06,35.14l-.03.18c-1.68,9.87-4.77,19.54-9.32,28.63-1.92,4.03-4.07,8.02-6.45,11.97-5.24,8.68-11.06,16.86-17.34,24.66-9.98,12.42-21.1,23.84-32.79,34.72-13.98-3.23-30.28-8.77-48.53-16.86,7.75-5.39,15.52-10.99,23.28-16.79,14.82-11.08,17.86-32.07,6.79-46.89-11.07-14.82-32.06-17.87-46.89-6.79-17.35,12.96-34.02,24.4-49.88,34.38-15.86-9.99-32.53-21.42-49.88-34.38-14.82-11.08-35.81-8.03-46.89,6.79-11.07,14.82-8.03,35.81,6.8,46.89,7.76,5.8,15.53,11.4,23.28,16.79-18.16,8.05-34.38,13.57-48.31,16.81-5.91-5.68-11.73-11.46-17.43-17.37-5.43-5.63-10.63-11.42-15.51-17.44-9.17-11.25-17.27-23.28-23.87-36.46-2.27-4.55-4.19-9.24-5.74-14.03-7.05-21.76-6.7-45.55.56-66.81ZM220,195.99c-8.91,5.18-17.52,9.87-25.81,14.09-10.75-7.26-21.57-14.95-32.38-23.02-5.76-4.3-6.94-12.44-2.64-18.2,4.3-5.75,12.44-6.93,18.19-2.63,14.27,10.66,28.55,20.62,42.64,29.76ZM79,225.39c4.46,5.19,9.11,10.22,13.93,15.1-3.03-.19-5.81-.6-8.31-1.2-7.84-1.89-12.39-5.41-15.69-12.16-2.13-4.33-2.86-8.23.05-14.03,0-.01.01-.01.01-.02.49.66,1,1.31,1.5,1.96.05.06.1.12.15.18.89,1.14,1.78,2.26,2.69,3.38.93,1.15,1.86,2.29,2.81,3.42.94,1.13,1.9,2.25,2.86,3.37ZM77.48,202.32c.06-.05.11-.1.16-.15.01-.01.02-.02.04-.03-.06.06-.12.12-.2.18ZM138.3,281.65c-17.96,4.46-34.16,6.22-48.52,5.25-5.66-.38-11.03-1.18-16.1-2.41-21.42-5.17-37.08-17.59-46.54-36.9-9.7-19.79-8.74-40.52,2.75-59.93,4.39-7.41,9.48-13.18,13.4-17.04.41.98.84,1.96,1.28,2.93.31.68.62,1.36.93,2.03.64,1.34,1.29,2.68,1.96,4.01,2.65,5.25,5.61,10.4,8.83,15.45-1.51,1.91-3.02,4.09-4.39,6.49-6.66,11.63-7.12,22.96-1.41,34.62,5.98,12.21,15.56,19.75,29.29,23.07,9.54,2.3,20.95,2.54,33.97.75,8.77-1.2,18.27-3.32,28.42-6.35,10.75-3.2,22.23-7.41,34.34-12.62,5.28-2.27,10.66-4.72,16.11-7.34,6.94-3.32,14-6.92,21.16-10.78,8.44-4.54,17.02-9.44,25.7-14.68,6.45-3.89,12.94-7.95,19.48-12.21,14.1-9.14,28.36-19.1,42.64-29.76,5.75-4.3,13.9-3.12,18.19,2.63,4.3,5.76,3.12,13.9-2.63,18.2-10.8,8.07-21.62,15.75-32.37,23.01-6.56,4.43-13.11,8.71-19.61,12.81-8.64,5.46-17.22,10.62-25.7,15.46-7.09,4.06-14.11,7.89-21.04,11.48-10.81,5.61-21.39,10.65-31.66,15.07-7.59,3.26-14.95,6.17-22.09,8.71-9.18,3.28-17.98,5.96-26.39,8.05ZM250.72,328.05c-3.64,3.17-7.33,6.28-11.37,9.74-18.74-16.69-37.93-32.75-56.93-48.94,4.11-1.6,8.28-3.31,12.5-5.13,14.36-6.18,29.29-13.51,44.56-21.87,15.28,8.36,30.2,15.69,44.57,21.87,4.1,1.76,8.14,3.43,12.13,4.99-15.15,13.13-30.33,26.2-45.46,39.34ZM422.67,195.04c5.03-7.88,9.42-16,13-24.42.01,0,.02.01.03.02,3.92,3.87,8.99,9.63,13.37,17.02,11.5,19.41,12.45,40.14,2.76,59.93-9.47,19.31-25.12,31.73-46.54,36.9-5.08,1.23-10.45,2.03-16.11,2.41-14.29.96-30.41-.78-48.27-5.19-8.64-2.14-17.69-4.9-27.13-8.29-6.99-2.5-14.19-5.34-21.6-8.53-10.27-4.42-20.85-9.46-31.66-15.07,8.54-5.1,17.16-10.49,25.83-16.16,5.45,2.62,10.82,5.07,16.1,7.34,11.99,5.16,23.36,9.34,34.02,12.52,10.39,3.12,20.1,5.28,29.05,6.49,12.9,1.74,24.2,1.49,33.67-.79,13.72-3.32,23.31-10.86,29.29-23.07,5.71-11.66,5.25-22.99-1.42-34.62-1.36-2.38-2.86-4.54-4.35-6.44l-.04-.05ZM409.97,213.09c2.91,5.79,2.19,9.71.06,14.04-3.3,6.75-7.84,10.27-15.69,12.16-2.5.6-5.26,1-8.28,1.2,4.8-4.9,9.45-9.93,13.9-15.12.49-.55.96-1.1,1.43-1.66.78-.91,1.56-1.84,2.32-2.77.58-.68,1.13-1.36,1.68-2.05.17-.19.33-.39.48-.59.78-.96,1.55-1.93,2.31-2.9.13-.16.25-.32.38-.48.24-.31.47-.61.71-.91.23-.31.47-.62.7-.92"/>
</svg>